<svg xmlns="http://www.w3.org/2000/svg" xmlns:xlink="http://www.w3.org/1999/xlink" contentStyleType="text/css" height="711px" preserveAspectRatio="none" style="width:596px;height:711px;background:#FFFFFF;" version="1.1" viewBox="0 0 596 711" width="596px" zoomAndPan="magnify"><defs/><g><text fill="#000000" font-family="sans-serif" font-size="14" font-weight="bold" lengthAdjust="spacing" textLength="301.6084" x="143.4258" y="27.9951">Customer 'Future Gadget Lab' Jobcard</text><line style="stroke:#181818;stroke-width:0.5;stroke-dasharray:5.0,5.0;" x1="46" x2="46" y1="73.5938" y2="676.1172"/><line style="stroke:#181818;stroke-width:0.5;stroke-dasharray:5.0,5.0;" x1="254.5898" x2="254.5898" y1="73.5938" y2="676.1172"/><line style="stroke:#181818;stroke-width:0.5;stroke-dasharray:5.0,5.0;" x1="340.5088" x2="340.5088" y1="73.5938" y2="676.1172"/><line style="stroke:#181818;stroke-width:0.5;stroke-dasharray:5.0,5.0;" x1="455.3887" x2="455.3887" y1="73.5938" y2="676.1172"/><line style="stroke:#181818;stroke-width:0.5;stroke-dasharray:5.0,5.0;" x1="553.4219" x2="553.4219" y1="73.5938" y2="676.1172"/><rect fill="#E2E2F0" height="30.2969" rx="2.5" ry="2.5" style="stroke:#181818;stroke-width:0.5;" width="83.1729" x="5" y="42.2969"/><text fill="#000000" font-family="sans-serif" font-size="14" lengthAdjust="spacing" textLength="69.1729" x="12" y="62.292">Controller</text><rect fill="#E2E2F0" height="30.2969" rx="2.5" ry="2.5" style="stroke:#181818;stroke-width:0.5;" width="83.1729" x="5" y="675.1172"/><text fill="#000000" font-family="sans-serif" font-size="14" lengthAdjust="spacing" textLength="69.1729" x="12" y="695.1123">Controller</text><rect fill="#E2E2F0" height="30.2969" rx="2.5" ry="2.5" style="stroke:#181818;stroke-width:0.5;" width="58.9189" x="225.5898" y="42.2969"/><text fill="#000000" font-family="sans-serif" font-size="14" lengthAdjust="spacing" textLength="44.9189" x="232.5898" y="62.292">Config</text><rect fill="#E2E2F0" height="30.2969" rx="2.5" ry="2.5" style="stroke:#181818;stroke-width:0.5;" width="58.9189" x="225.5898" y="675.1172"/><text fill="#000000" font-family="sans-serif" font-size="14" lengthAdjust="spacing" textLength="44.9189" x="232.5898" y="695.1123">Config</text><rect fill="#E2E2F0" height="30.2969" rx="2.5" ry="2.5" style="stroke:#181818;stroke-width:0.5;" width="92.8799" x="294.5088" y="42.2969"/><text fill="#000000" font-family="sans-serif" font-size="14" lengthAdjust="spacing" textLength="78.8799" x="301.5088" y="62.292">BoxFactory</text><rect fill="#E2E2F0" height="30.2969" rx="2.5" ry="2.5" style="stroke:#181818;stroke-width:0.5;" width="92.8799" x="294.5088" y="675.1172"/><text fill="#000000" font-family="sans-serif" font-size="14" lengthAdjust="spacing" textLength="78.8799" x="301.5088" y="695.1123">BoxFactory</text><rect fill="#E2E2F0" height="30.2969" rx="2.5" ry="2.5" style="stroke:#181818;stroke-width:0.5;" width="116.0332" x="397.3887" y="42.2969"/><text fill="#000000" font-family="sans-serif" font-size="14" lengthAdjust="spacing" textLength="102.0332" x="404.3887" y="62.292">WidgetFactory</text><rect fill="#E2E2F0" height="30.2969" rx="2.5" ry="2.5" style="stroke:#181818;stroke-width:0.5;" width="116.0332" x="397.3887" y="675.1172"/><text fill="#000000" font-family="sans-serif" font-size="14" lengthAdjust="spacing" textLength="102.0332" x="404.3887" y="695.1123">WidgetFactory</text><rect fill="#E2E2F0" height="30.2969" rx="2.5" ry="2.5" style="stroke:#181818;stroke-width:0.5;" width="61.0381" x="523.4219" y="42.2969"/><text fill="#000000" font-family="sans-serif" font-size="14" lengthAdjust="spacing" textLength="47.0381" x="530.4219" y="62.292">Report</text><rect fill="#E2E2F0" height="30.2969" rx="2.5" ry="2.5" style="stroke:#181818;stroke-width:0.5;" width="61.0381" x="523.4219" y="675.1172"/><text fill="#000000" font-family="sans-serif" font-size="14" lengthAdjust="spacing" textLength="47.0381" x="530.4219" y="695.1123">Report</text><line style="stroke:#000000;stroke-width:1.0;stroke-dasharray:2.0,2.0;" x1="0" x2="589.46" y1="83.5938" y2="83.5938"/><polygon fill="#181818" points="243.0493,101.7266,253.0493,105.7266,243.0493,109.7266,247.0493,105.7266" style="stroke:#181818;stroke-width:1.0;"/><line style="stroke:#181818;stroke-width:1.0;" x1="46.5864" x2="249.0493" y1="105.7266" y2="105.7266"/><text fill="#000000" font-family="sans-serif" font-size="13" lengthAdjust="spacing" textLength="184.4629" x="53.5864" y="100.6606">How many widgets per box?</text><polygon fill="#181818" points="57.5864,130.8594,47.5864,134.8594,57.5864,138.8594,53.5864,134.8594" style="stroke:#181818;stroke-width:1.0;"/><line style="stroke:#181818;stroke-width:1.0;" x1="51.5864" x2="254.0493" y1="134.8594" y2="134.8594"/><text fill="#000000" font-family="sans-serif" font-size="13" lengthAdjust="spacing" textLength="8.271" x="63.5864" y="129.7935">4</text><polygon fill="#181818" points="328.9487,159.9922,338.9487,163.9922,328.9487,167.9922,332.9487,163.9922" style="stroke:#181818;stroke-width:1.0;"/><line style="stroke:#181818;stroke-width:1.0;" x1="46.5864" x2="334.9487" y1="163.9922" y2="163.9922"/><text fill="#000000" font-family="sans-serif" font-size="13" lengthAdjust="spacing" textLength="160.7734" x="53.5864" y="158.9263">Start Production 2 boxes</text><polygon fill="#181818" points="57.5864,189.125,47.5864,193.125,57.5864,197.125,53.5864,193.125" style="stroke:#181818;stroke-width:1.0;"/><line style="stroke:#181818;stroke-width:1.0;" x1="51.5864" x2="339.9487" y1="193.125" y2="193.125"/><text fill="#000000" font-family="sans-serif" font-size="13" lengthAdjust="spacing" textLength="92.46" x="63.5864" y="188.0591">2 boxes ready</text><polygon fill="#181818" points="443.4053,218.2578,453.4053,222.2578,443.4053,226.2578,447.4053,222.2578" style="stroke:#181818;stroke-width:1.0;"/><line style="stroke:#181818;stroke-width:1.0;" x1="46.5864" x2="449.4053" y1="222.2578" y2="222.2578"/><text fill="#000000" font-family="sans-serif" font-size="13" lengthAdjust="spacing" textLength="180.9907" x="53.5864" y="217.1919">Start Production 10 widgets</text><polygon fill="#181818" points="57.5864,247.3906,47.5864,251.3906,57.5864,255.3906,53.5864,251.3906" style="stroke:#181818;stroke-width:1.0;"/><line style="stroke:#181818;stroke-width:1.0;" x1="51.5864" x2="454.4053" y1="251.3906" y2="251.3906"/><text fill="#000000" font-family="sans-serif" font-size="13" lengthAdjust="spacing" textLength="107.0024" x="63.5864" y="246.3247">Widget '0' ready</text><polygon fill="#181818" points="57.5864,276.5234,47.5864,280.5234,57.5864,284.5234,53.5864,280.5234" style="stroke:#181818;stroke-width:1.0;"/><line style="stroke:#181818;stroke-width:1.0;" x1="51.5864" x2="454.4053" y1="280.5234" y2="280.5234"/><text fill="#000000" font-family="sans-serif" font-size="13" lengthAdjust="spacing" textLength="107.0024" x="63.5864" y="275.4575">Widget '1' ready</text><polygon fill="#181818" points="57.5864,305.6563,47.5864,309.6563,57.5864,313.6563,53.5864,309.6563" style="stroke:#181818;stroke-width:1.0;"/><line style="stroke:#181818;stroke-width:1.0;" x1="51.5864" x2="454.4053" y1="309.6563" y2="309.6563"/><text fill="#000000" font-family="sans-serif" font-size="13" lengthAdjust="spacing" textLength="107.0024" x="63.5864" y="304.5903">Widget '2' ready</text><polygon fill="#181818" points="57.5864,334.7891,47.5864,338.7891,57.5864,342.7891,53.5864,338.7891" style="stroke:#181818;stroke-width:1.0;"/><line style="stroke:#181818;stroke-width:1.0;" x1="51.5864" x2="454.4053" y1="338.7891" y2="338.7891"/><text fill="#000000" font-family="sans-serif" font-size="13" lengthAdjust="spacing" textLength="107.0024" x="63.5864" y="333.7231">Widget '3' ready</text><line style="stroke:#181818;stroke-width:1.0;" x1="46.5864" x2="88.5864" y1="367.9219" y2="367.9219"/><line style="stroke:#181818;stroke-width:1.0;" x1="88.5864" x2="88.5864" y1="367.9219" y2="380.9219"/><line style="stroke:#181818;stroke-width:1.0;" x1="47.5864" x2="88.5864" y1="380.9219" y2="380.9219"/><polygon fill="#181818" points="57.5864,376.9219,47.5864,380.9219,57.5864,384.9219,53.5864,380.9219" style="stroke:#181818;stroke-width:1.0;"/><text fill="#000000" font-family="sans-serif" font-size="13" lengthAdjust="spacing" textLength="174.2495" x="53.5864" y="362.856">Pack 4 widgets into box '0'</text><polygon fill="#181818" points="57.5864,406.0547,47.5864,410.0547,57.5864,414.0547,53.5864,410.0547" style="stroke:#181818;stroke-width:1.0;"/><line style="stroke:#181818;stroke-width:1.0;" x1="51.5864" x2="454.4053" y1="410.0547" y2="410.0547"/><text fill="#000000" font-family="sans-serif" font-size="13" lengthAdjust="spacing" textLength="107.0024" x="63.5864" y="404.9888">Widget '4' ready</text><polygon fill="#181818" points="57.5864,435.1875,47.5864,439.1875,57.5864,443.1875,53.5864,439.1875" style="stroke:#181818;stroke-width:1.0;"/><line style="stroke:#181818;stroke-width:1.0;" x1="51.5864" x2="454.4053" y1="439.1875" y2="439.1875"/><text fill="#000000" font-family="sans-serif" font-size="13" lengthAdjust="spacing" textLength="107.0024" x="63.5864" y="434.1216">Widget '5' ready</text><polygon fill="#181818" points="57.5864,464.3203,47.5864,468.3203,57.5864,472.3203,53.5864,468.3203" style="stroke:#181818;stroke-width:1.0;"/><line style="stroke:#181818;stroke-width:1.0;" x1="51.5864" x2="454.4053" y1="468.3203" y2="468.3203"/><text fill="#000000" font-family="sans-serif" font-size="13" lengthAdjust="spacing" textLength="107.0024" x="63.5864" y="463.2544">Widget '6' ready</text><polygon fill="#181818" points="57.5864,493.4531,47.5864,497.4531,57.5864,501.4531,53.5864,497.4531" style="stroke:#181818;stroke-width:1.0;"/><line style="stroke:#181818;stroke-width:1.0;" x1="51.5864" x2="454.4053" y1="497.4531" y2="497.4531"/><text fill="#000000" font-family="sans-serif" font-size="13" lengthAdjust="spacing" textLength="107.0024" x="63.5864" y="492.3872">Widget '7' ready</text><line style="stroke:#181818;stroke-width:1.0;" x1="46.5864" x2="88.5864" y1="526.5859" y2="526.5859"/><line style="stroke:#181818;stroke-width:1.0;" x1="88.5864" x2="88.5864" y1="526.5859" y2="539.5859"/><line style="stroke:#181818;stroke-width:1.0;" x1="47.5864" x2="88.5864" y1="539.5859" y2="539.5859"/><polygon fill="#181818" points="57.5864,535.5859,47.5864,539.5859,57.5864,543.5859,53.5864,539.5859" style="stroke:#181818;stroke-width:1.0;"/><text fill="#000000" font-family="sans-serif" font-size="13" lengthAdjust="spacing" textLength="174.2495" x="53.5864" y="521.52">Pack 4 widgets into box '1'</text><polygon fill="#181818" points="57.5864,564.7188,47.5864,568.7188,57.5864,572.7188,53.5864,568.7188" style="stroke:#181818;stroke-width:1.0;"/><line style="stroke:#181818;stroke-width:1.0;" x1="51.5864" x2="454.4053" y1="568.7188" y2="568.7188"/><text fill="#000000" font-family="sans-serif" font-size="13" lengthAdjust="spacing" textLength="107.0024" x="63.5864" y="563.6528">Widget '8' ready</text><polygon fill="#181818" points="57.5864,593.8516,47.5864,597.8516,57.5864,601.8516,53.5864,597.8516" style="stroke:#181818;stroke-width:1.0;"/><line style="stroke:#181818;stroke-width:1.0;" x1="51.5864" x2="454.4053" y1="597.8516" y2="597.8516"/><text fill="#000000" font-family="sans-serif" font-size="13" lengthAdjust="spacing" textLength="107.0024" x="63.5864" y="592.7856">Widget '9' ready</text><polygon fill="#181818" points="541.9409,622.9844,551.9409,626.9844,541.9409,630.9844,545.9409,626.9844" style="stroke:#181818;stroke-width:1.0;"/><line style="stroke:#181818;stroke-width:1.0;" x1="46.5864" x2="547.9409" y1="626.9844" y2="626.9844"/><text fill="#000000" font-family="sans-serif" font-size="13" lengthAdjust="spacing" textLength="191.3247" x="53.5864" y="621.9185">2 boxes with 8 widgets ready</text><polygon fill="#181818" points="541.9409,652.1172,551.9409,656.1172,541.9409,660.1172,545.9409,656.1172" style="stroke:#181818;stroke-width:1.0;"/><line style="stroke:#181818;stroke-width:1.0;" x1="46.5864" x2="547.9409" y1="656.1172" y2="656.1172"/><text fill="#000000" font-family="sans-serif" font-size="13" lengthAdjust="spacing" textLength="181.6318" x="53.5864" y="651.0513">2 widgets are left unpacked</text><line style="stroke:#000000;stroke-width:1.0;stroke-dasharray:2.0,2.0;" x1="0" x2="589.46" y1="664.1172" y2="664.1172"/><!--SRC=[dLLTRvim57tdLrogj6cqDSjUewMJLccQzbHj3tj43huaNetD73EQVx-BCGGmQ6tp4F37kUVSu-Ca5YgL9KSeZEPbQeLMIQfL9WvhKUOoYk9C6sJf4HQ_zHw4WaMuarOIAKus0leeh0fsG7WeJrRdQ61P8zUf7oQAvRY4xtgVCiCZ1uaNbU07jAUae0rx_Gmxk1RA_cNore57ookFClYd50PvujV7iF7wgg5xqCeQBILfkxklHzJ35hxf2dAcpj0M8p8WiiyjXdRv_HwzXR7kQ2oCvh2M5Khz489RRCw44khGxohN_3QeyJueuOqH6KoKYNUmWPiRTv1h9gMkae8PA-Zrd6I2EkADzpkuigR4ArVilmqrC-_WOyEDYejiokSl-lahIwqsvotyj4GCZrsGWdBksnMvm0Bpfp10OUNdAVvVpeQNI6WDyyzXHYdpfRBamCPF4-ruhZeAYJ04V0e9Edy7qiPjDejqY_hbbhxFomcDr0t7xUcqwMZorDyoaQKw29iEDdbnEf6FB7qAAdGtYUwahe-7ckZSMWug3sti3GRAcsorhyxbw9BuryTw_fwygksmnCiQx_KJqlp0GXixb_9AsEDyOdlXY56UyEqKr-X-J0EYkuckLnFqRxUv9sxENMOG96OMIbNGGI2VImgzrW_w9ul-0G00]--></g></svg>