<svg xmlns="http://www.w3.org/2000/svg" xmlns:xlink="http://www.w3.org/1999/xlink" contentStyleType="text/css" height="882px" preserveAspectRatio="none" style="width:596px;height:882px;background:#FFFFFF;" version="1.1" viewBox="0 0 596 882" width="596px" zoomAndPan="magnify"><defs/><g><text fill="#000000" font-family="sans-serif" font-size="14" font-weight="bold" lengthAdjust="spacing" textLength="320.626" x="133.917" y="27.9951">Customer 'Gaitonde Enterprises' Jobcard</text><line style="stroke:#181818;stroke-width:0.5;stroke-dasharray:5.0,5.0;" x1="46" x2="46" y1="73.5938" y2="846.7813"/><line style="stroke:#181818;stroke-width:0.5;stroke-dasharray:5.0,5.0;" x1="254.5898" x2="254.5898" y1="73.5938" y2="846.7813"/><line style="stroke:#181818;stroke-width:0.5;stroke-dasharray:5.0,5.0;" x1="352.5088" x2="352.5088" y1="73.5938" y2="846.7813"/><line style="stroke:#181818;stroke-width:0.5;stroke-dasharray:5.0,5.0;" x1="466.542" x2="466.542" y1="73.5938" y2="846.7813"/><line style="stroke:#181818;stroke-width:0.5;stroke-dasharray:5.0,5.0;" x1="553.4219" x2="553.4219" y1="73.5938" y2="846.7813"/><rect fill="#E2E2F0" height="30.2969" rx="2.5" ry="2.5" style="stroke:#181818;stroke-width:0.5;" width="83.1729" x="5" y="42.2969"/><text fill="#000000" font-family="sans-serif" font-size="14" lengthAdjust="spacing" textLength="69.1729" x="12" y="62.292">Controller</text><rect fill="#E2E2F0" height="30.2969" rx="2.5" ry="2.5" style="stroke:#181818;stroke-width:0.5;" width="83.1729" x="5" y="845.7813"/><text fill="#000000" font-family="sans-serif" font-size="14" lengthAdjust="spacing" textLength="69.1729" x="12" y="865.7764">Controller</text><rect fill="#E2E2F0" height="30.2969" rx="2.5" ry="2.5" style="stroke:#181818;stroke-width:0.5;" width="58.9189" x="225.5898" y="42.2969"/><text fill="#000000" font-family="sans-serif" font-size="14" lengthAdjust="spacing" textLength="44.9189" x="232.5898" y="62.292">Config</text><rect fill="#E2E2F0" height="30.2969" rx="2.5" ry="2.5" style="stroke:#181818;stroke-width:0.5;" width="58.9189" x="225.5898" y="845.7813"/><text fill="#000000" font-family="sans-serif" font-size="14" lengthAdjust="spacing" textLength="44.9189" x="232.5898" y="865.7764">Config</text><rect fill="#E2E2F0" height="30.2969" rx="2.5" ry="2.5" style="stroke:#181818;stroke-width:0.5;" width="116.0332" x="294.5088" y="42.2969"/><text fill="#000000" font-family="sans-serif" font-size="14" lengthAdjust="spacing" textLength="102.0332" x="301.5088" y="62.292">WidgetFactory</text><rect fill="#E2E2F0" height="30.2969" rx="2.5" ry="2.5" style="stroke:#181818;stroke-width:0.5;" width="116.0332" x="294.5088" y="845.7813"/><text fill="#000000" font-family="sans-serif" font-size="14" lengthAdjust="spacing" textLength="102.0332" x="301.5088" y="865.7764">WidgetFactory</text><rect fill="#E2E2F0" height="30.2969" rx="2.5" ry="2.5" style="stroke:#181818;stroke-width:0.5;" width="92.8799" x="420.542" y="42.2969"/><text fill="#000000" font-family="sans-serif" font-size="14" lengthAdjust="spacing" textLength="78.8799" x="427.542" y="62.292">BoxFactory</text><rect fill="#E2E2F0" height="30.2969" rx="2.5" ry="2.5" style="stroke:#181818;stroke-width:0.5;" width="92.8799" x="420.542" y="845.7813"/><text fill="#000000" font-family="sans-serif" font-size="14" lengthAdjust="spacing" textLength="78.8799" x="427.542" y="865.7764">BoxFactory</text><rect fill="#E2E2F0" height="30.2969" rx="2.5" ry="2.5" style="stroke:#181818;stroke-width:0.5;" width="61.0381" x="523.4219" y="42.2969"/><text fill="#000000" font-family="sans-serif" font-size="14" lengthAdjust="spacing" textLength="47.0381" x="530.4219" y="62.292">Report</text><rect fill="#E2E2F0" height="30.2969" rx="2.5" ry="2.5" style="stroke:#181818;stroke-width:0.5;" width="61.0381" x="523.4219" y="845.7813"/><text fill="#000000" font-family="sans-serif" font-size="14" lengthAdjust="spacing" textLength="47.0381" x="530.4219" y="865.7764">Report</text><line style="stroke:#000000;stroke-width:1.0;stroke-dasharray:2.0,2.0;" x1="0" x2="589.46" y1="84.5938" y2="84.5938"/><polygon fill="#181818" points="243.0493,102.7266,253.0493,106.7266,243.0493,110.7266,247.0493,106.7266" style="stroke:#181818;stroke-width:1.0;"/><line style="stroke:#181818;stroke-width:1.0;" x1="46.5864" x2="249.0493" y1="106.7266" y2="106.7266"/><text fill="#000000" font-family="sans-serif" font-size="13" lengthAdjust="spacing" textLength="130.7046" x="53.5864" y="101.6606">How many widgets?</text><polygon fill="#181818" points="57.5864,131.8594,47.5864,135.8594,57.5864,139.8594,53.5864,135.8594" style="stroke:#181818;stroke-width:1.0;"/><line style="stroke:#181818;stroke-width:1.0;" x1="51.5864" x2="254.0493" y1="135.8594" y2="135.8594"/><text fill="#000000" font-family="sans-serif" font-size="13" lengthAdjust="spacing" textLength="16.542" x="63.5864" y="130.7935">12</text><polygon fill="#181818" points="243.0493,160.9922,253.0493,164.9922,243.0493,168.9922,247.0493,164.9922" style="stroke:#181818;stroke-width:1.0;"/><line style="stroke:#181818;stroke-width:1.0;" x1="46.5864" x2="249.0493" y1="164.9922" y2="164.9922"/><text fill="#000000" font-family="sans-serif" font-size="13" lengthAdjust="spacing" textLength="184.4629" x="53.5864" y="159.9263">How many widgets per box?</text><polygon fill="#181818" points="57.5864,190.125,47.5864,194.125,57.5864,198.125,53.5864,194.125" style="stroke:#181818;stroke-width:1.0;"/><line style="stroke:#181818;stroke-width:1.0;" x1="51.5864" x2="254.0493" y1="194.125" y2="194.125"/><text fill="#000000" font-family="sans-serif" font-size="13" lengthAdjust="spacing" textLength="8.271" x="63.5864" y="189.0591">3</text><polygon fill="#181818" points="340.5254,219.2578,350.5254,223.2578,340.5254,227.2578,344.5254,223.2578" style="stroke:#181818;stroke-width:1.0;"/><line style="stroke:#181818;stroke-width:1.0;" x1="46.5864" x2="346.5254" y1="223.2578" y2="223.2578"/><text fill="#000000" font-family="sans-serif" font-size="13" lengthAdjust="spacing" textLength="180.9907" x="53.5864" y="218.1919">Start Production 12 widgets</text><polygon fill="#181818" points="454.9819,248.3906,464.9819,252.3906,454.9819,256.3906,458.9819,252.3906" style="stroke:#181818;stroke-width:1.0;"/><line style="stroke:#181818;stroke-width:1.0;" x1="46.5864" x2="460.9819" y1="252.3906" y2="252.3906"/><text fill="#000000" font-family="sans-serif" font-size="13" lengthAdjust="spacing" textLength="160.7734" x="53.5864" y="247.3247">Start Production 4 boxes</text><polygon fill="#181818" points="57.5864,277.5234,47.5864,281.5234,57.5864,285.5234,53.5864,281.5234" style="stroke:#181818;stroke-width:1.0;"/><line style="stroke:#181818;stroke-width:1.0;" x1="51.5864" x2="465.9819" y1="281.5234" y2="281.5234"/><text fill="#000000" font-family="sans-serif" font-size="13" lengthAdjust="spacing" textLength="92.46" x="63.5864" y="276.4575">4 boxes ready</text><polygon fill="#181818" points="57.5864,306.6563,47.5864,310.6563,57.5864,314.6563,53.5864,310.6563" style="stroke:#181818;stroke-width:1.0;"/><line style="stroke:#181818;stroke-width:1.0;" x1="51.5864" x2="351.5254" y1="310.6563" y2="310.6563"/><text fill="#000000" font-family="sans-serif" font-size="13" lengthAdjust="spacing" textLength="107.0024" x="63.5864" y="305.5903">Widget '0' ready</text><polygon fill="#181818" points="57.5864,335.7891,47.5864,339.7891,57.5864,343.7891,53.5864,339.7891" style="stroke:#181818;stroke-width:1.0;"/><line style="stroke:#181818;stroke-width:1.0;" x1="51.5864" x2="351.5254" y1="339.7891" y2="339.7891"/><text fill="#000000" font-family="sans-serif" font-size="13" lengthAdjust="spacing" textLength="107.0024" x="63.5864" y="334.7231">Widget '1' ready</text><polygon fill="#181818" points="57.5864,364.9219,47.5864,368.9219,57.5864,372.9219,53.5864,368.9219" style="stroke:#181818;stroke-width:1.0;"/><line style="stroke:#181818;stroke-width:1.0;" x1="51.5864" x2="351.5254" y1="368.9219" y2="368.9219"/><text fill="#000000" font-family="sans-serif" font-size="13" lengthAdjust="spacing" textLength="107.0024" x="63.5864" y="363.856">Widget '2' ready</text><line style="stroke:#181818;stroke-width:1.0;" x1="46.5864" x2="88.5864" y1="398.0547" y2="398.0547"/><line style="stroke:#181818;stroke-width:1.0;" x1="88.5864" x2="88.5864" y1="398.0547" y2="411.0547"/><line style="stroke:#181818;stroke-width:1.0;" x1="47.5864" x2="88.5864" y1="411.0547" y2="411.0547"/><polygon fill="#181818" points="57.5864,407.0547,47.5864,411.0547,57.5864,415.0547,53.5864,411.0547" style="stroke:#181818;stroke-width:1.0;"/><text fill="#000000" font-family="sans-serif" font-size="13" lengthAdjust="spacing" textLength="174.2495" x="53.5864" y="392.9888">Pack 3 widgets into box '0'</text><polygon fill="#181818" points="57.5864,436.1875,47.5864,440.1875,57.5864,444.1875,53.5864,440.1875" style="stroke:#181818;stroke-width:1.0;"/><line style="stroke:#181818;stroke-width:1.0;" x1="51.5864" x2="351.5254" y1="440.1875" y2="440.1875"/><text fill="#000000" font-family="sans-serif" font-size="13" lengthAdjust="spacing" textLength="107.0024" x="63.5864" y="435.1216">Widget '3' ready</text><polygon fill="#181818" points="57.5864,465.3203,47.5864,469.3203,57.5864,473.3203,53.5864,469.3203" style="stroke:#181818;stroke-width:1.0;"/><line style="stroke:#181818;stroke-width:1.0;" x1="51.5864" x2="351.5254" y1="469.3203" y2="469.3203"/><text fill="#000000" font-family="sans-serif" font-size="13" lengthAdjust="spacing" textLength="107.0024" x="63.5864" y="464.2544">Widget '4' ready</text><polygon fill="#181818" points="57.5864,494.4531,47.5864,498.4531,57.5864,502.4531,53.5864,498.4531" style="stroke:#181818;stroke-width:1.0;"/><line style="stroke:#181818;stroke-width:1.0;" x1="51.5864" x2="351.5254" y1="498.4531" y2="498.4531"/><text fill="#000000" font-family="sans-serif" font-size="13" lengthAdjust="spacing" textLength="107.0024" x="63.5864" y="493.3872">Widget '5' ready</text><line style="stroke:#181818;stroke-width:1.0;" x1="46.5864" x2="88.5864" y1="527.5859" y2="527.5859"/><line style="stroke:#181818;stroke-width:1.0;" x1="88.5864" x2="88.5864" y1="527.5859" y2="540.5859"/><line style="stroke:#181818;stroke-width:1.0;" x1="47.5864" x2="88.5864" y1="540.5859" y2="540.5859"/><polygon fill="#181818" points="57.5864,536.5859,47.5864,540.5859,57.5864,544.5859,53.5864,540.5859" style="stroke:#181818;stroke-width:1.0;"/><text fill="#000000" font-family="sans-serif" font-size="13" lengthAdjust="spacing" textLength="174.2495" x="53.5864" y="522.52">Pack 3 widgets into box '1'</text><polygon fill="#181818" points="57.5864,565.7188,47.5864,569.7188,57.5864,573.7188,53.5864,569.7188" style="stroke:#181818;stroke-width:1.0;"/><line style="stroke:#181818;stroke-width:1.0;" x1="51.5864" x2="351.5254" y1="569.7188" y2="569.7188"/><text fill="#000000" font-family="sans-serif" font-size="13" lengthAdjust="spacing" textLength="107.0024" x="63.5864" y="564.6528">Widget '6' ready</text><polygon fill="#181818" points="57.5864,594.8516,47.5864,598.8516,57.5864,602.8516,53.5864,598.8516" style="stroke:#181818;stroke-width:1.0;"/><line style="stroke:#181818;stroke-width:1.0;" x1="51.5864" x2="351.5254" y1="598.8516" y2="598.8516"/><text fill="#000000" font-family="sans-serif" font-size="13" lengthAdjust="spacing" textLength="107.0024" x="63.5864" y="593.7856">Widget '7' ready</text><polygon fill="#181818" points="57.5864,623.9844,47.5864,627.9844,57.5864,631.9844,53.5864,627.9844" style="stroke:#181818;stroke-width:1.0;"/><line style="stroke:#181818;stroke-width:1.0;" x1="51.5864" x2="351.5254" y1="627.9844" y2="627.9844"/><text fill="#000000" font-family="sans-serif" font-size="13" lengthAdjust="spacing" textLength="107.0024" x="63.5864" y="622.9185">Widget '8' ready</text><line style="stroke:#181818;stroke-width:1.0;" x1="46.5864" x2="88.5864" y1="657.1172" y2="657.1172"/><line style="stroke:#181818;stroke-width:1.0;" x1="88.5864" x2="88.5864" y1="657.1172" y2="670.1172"/><line style="stroke:#181818;stroke-width:1.0;" x1="47.5864" x2="88.5864" y1="670.1172" y2="670.1172"/><polygon fill="#181818" points="57.5864,666.1172,47.5864,670.1172,57.5864,674.1172,53.5864,670.1172" style="stroke:#181818;stroke-width:1.0;"/><text fill="#000000" font-family="sans-serif" font-size="13" lengthAdjust="spacing" textLength="174.2495" x="53.5864" y="652.0513">Pack 3 widgets into box '2'</text><polygon fill="#181818" points="57.5864,695.25,47.5864,699.25,57.5864,703.25,53.5864,699.25" style="stroke:#181818;stroke-width:1.0;"/><line style="stroke:#181818;stroke-width:1.0;" x1="51.5864" x2="351.5254" y1="699.25" y2="699.25"/><text fill="#000000" font-family="sans-serif" font-size="13" lengthAdjust="spacing" textLength="107.0024" x="63.5864" y="694.1841">Widget '9' ready</text><polygon fill="#181818" points="57.5864,724.3828,47.5864,728.3828,57.5864,732.3828,53.5864,728.3828" style="stroke:#181818;stroke-width:1.0;"/><line style="stroke:#181818;stroke-width:1.0;" x1="51.5864" x2="351.5254" y1="728.3828" y2="728.3828"/><text fill="#000000" font-family="sans-serif" font-size="13" lengthAdjust="spacing" textLength="115.2734" x="63.5864" y="723.3169">Widget '10' ready</text><polygon fill="#181818" points="57.5864,753.5156,47.5864,757.5156,57.5864,761.5156,53.5864,757.5156" style="stroke:#181818;stroke-width:1.0;"/><line style="stroke:#181818;stroke-width:1.0;" x1="51.5864" x2="351.5254" y1="757.5156" y2="757.5156"/><text fill="#000000" font-family="sans-serif" font-size="13" lengthAdjust="spacing" textLength="115.2734" x="63.5864" y="752.4497">Widget '11' ready</text><line style="stroke:#181818;stroke-width:1.0;" x1="46.5864" x2="88.5864" y1="786.6484" y2="786.6484"/><line style="stroke:#181818;stroke-width:1.0;" x1="88.5864" x2="88.5864" y1="786.6484" y2="799.6484"/><line style="stroke:#181818;stroke-width:1.0;" x1="47.5864" x2="88.5864" y1="799.6484" y2="799.6484"/><polygon fill="#181818" points="57.5864,795.6484,47.5864,799.6484,57.5864,803.6484,53.5864,799.6484" style="stroke:#181818;stroke-width:1.0;"/><text fill="#000000" font-family="sans-serif" font-size="13" lengthAdjust="spacing" textLength="174.2495" x="53.5864" y="781.5825">Pack 3 widgets into box '3'</text><polygon fill="#181818" points="541.9409,824.7813,551.9409,828.7813,541.9409,832.7813,545.9409,828.7813" style="stroke:#181818;stroke-width:1.0;"/><line style="stroke:#181818;stroke-width:1.0;" x1="46.5864" x2="547.9409" y1="828.7813" y2="828.7813"/><text fill="#000000" font-family="sans-serif" font-size="13" lengthAdjust="spacing" textLength="199.5957" x="53.5864" y="823.7153">4 boxes with 12 widgets ready</text><!--SRC=[dLLDSvim4BtpAvQC4yUJndMkdhYPIMOwdPuoxQ57HaQBhLH8H1Ob_lTTG610qCRXOEjZz-tksxSG2XNBd2DaHlCyjaAhADOg4Rkbo5CP166Y3R9u3xCNlGMXOEPRqaqanS46G8_28cCxXAVyO7MA1kQbvp9ssqYn5EVmNMzZPdXGkOIpGl0TsaEKaS5Mly46BeMoVvYyhfm7rmldPV0r5mPvvEw7RiFxHHtkIIjhj9IKs-sNSaSrhE6RBY1bwWZE-A6nfLjdvxpMu4K-0nUe2A0Y_ea_A7Wixr-LoLSMMssEQ_XfcR7mtFR6px5981YoHm6mvCxt-EndqlYcJ2YXTbtgKyslFOnF7eJhdaXW12RSm0gkhYgrBPcKkeWoAapGyXWbWehdjK0sS65DZXSLs7yBgazkuAwEZOgBP8pKH_ts7aPhkEgt0ZcvJIkbumCqKVpOrpxDKgui9RronsGvF2lsGYBq7Uudn5W-FOaCCwilQJgxS7ENsedKGNRzVKDeqz1Q0bsJaVQNlLkrRgE3qoRvpEBV7a8xIJJhkcIKYcZPclUG-pHsDhtCQpaqouhbu2JIyvKuBUspolOXtbTufnu_p0_CjB5JmYo4tK-_EJhY254UyECXBh5wINk1RaUgNeo4_pZDdUIcs6K6GM9Y8LSPDGBvb59eMVxH5pBu2m00]--></g></svg>