<svg xmlns="http://www.w3.org/2000/svg" xmlns:xlink="http://www.w3.org/1999/xlink" contentStyleType="text/css" height="769px" preserveAspectRatio="none" style="width:596px;height:769px;background:#FFFFFF;" version="1.1" viewBox="0 0 596 769" width="596px" zoomAndPan="magnify"><defs/><g><text fill="#000000" font-family="sans-serif" font-size="14" font-weight="bold" lengthAdjust="spacing" textLength="301.6084" x="143.4258" y="27.9951">Customer 'Future Gadget Lab' Jobcard</text><line style="stroke:#181818;stroke-width:0.5;stroke-dasharray:5.0,5.0;" x1="46" x2="46" y1="73.5938" y2="734.3828"/><line style="stroke:#181818;stroke-width:0.5;stroke-dasharray:5.0,5.0;" x1="254.5898" x2="254.5898" y1="73.5938" y2="734.3828"/><line style="stroke:#181818;stroke-width:0.5;stroke-dasharray:5.0,5.0;" x1="352.5088" x2="352.5088" y1="73.5938" y2="734.3828"/><line style="stroke:#181818;stroke-width:0.5;stroke-dasharray:5.0,5.0;" x1="466.542" x2="466.542" y1="73.5938" y2="734.3828"/><line style="stroke:#181818;stroke-width:0.5;stroke-dasharray:5.0,5.0;" x1="553.4219" x2="553.4219" y1="73.5938" y2="734.3828"/><rect fill="#E2E2F0" height="30.2969" rx="2.5" ry="2.5" style="stroke:#181818;stroke-width:0.5;" width="83.1729" x="5" y="42.2969"/><text fill="#000000" font-family="sans-serif" font-size="14" lengthAdjust="spacing" textLength="69.1729" x="12" y="62.292">Controller</text><rect fill="#E2E2F0" height="30.2969" rx="2.5" ry="2.5" style="stroke:#181818;stroke-width:0.5;" width="83.1729" x="5" y="733.3828"/><text fill="#000000" font-family="sans-serif" font-size="14" lengthAdjust="spacing" textLength="69.1729" x="12" y="753.3779">Controller</text><rect fill="#E2E2F0" height="30.2969" rx="2.5" ry="2.5" style="stroke:#181818;stroke-width:0.5;" width="58.9189" x="225.5898" y="42.2969"/><text fill="#000000" font-family="sans-serif" font-size="14" lengthAdjust="spacing" textLength="44.9189" x="232.5898" y="62.292">Config</text><rect fill="#E2E2F0" height="30.2969" rx="2.5" ry="2.5" style="stroke:#181818;stroke-width:0.5;" width="58.9189" x="225.5898" y="733.3828"/><text fill="#000000" font-family="sans-serif" font-size="14" lengthAdjust="spacing" textLength="44.9189" x="232.5898" y="753.3779">Config</text><rect fill="#E2E2F0" height="30.2969" rx="2.5" ry="2.5" style="stroke:#181818;stroke-width:0.5;" width="116.0332" x="294.5088" y="42.2969"/><text fill="#000000" font-family="sans-serif" font-size="14" lengthAdjust="spacing" textLength="102.0332" x="301.5088" y="62.292">WidgetFactory</text><rect fill="#E2E2F0" height="30.2969" rx="2.5" ry="2.5" style="stroke:#181818;stroke-width:0.5;" width="116.0332" x="294.5088" y="733.3828"/><text fill="#000000" font-family="sans-serif" font-size="14" lengthAdjust="spacing" textLength="102.0332" x="301.5088" y="753.3779">WidgetFactory</text><rect fill="#E2E2F0" height="30.2969" rx="2.5" ry="2.5" style="stroke:#181818;stroke-width:0.5;" width="92.8799" x="420.542" y="42.2969"/><text fill="#000000" font-family="sans-serif" font-size="14" lengthAdjust="spacing" textLength="78.8799" x="427.542" y="62.292">BoxFactory</text><rect fill="#E2E2F0" height="30.2969" rx="2.5" ry="2.5" style="stroke:#181818;stroke-width:0.5;" width="92.8799" x="420.542" y="733.3828"/><text fill="#000000" font-family="sans-serif" font-size="14" lengthAdjust="spacing" textLength="78.8799" x="427.542" y="753.3779">BoxFactory</text><rect fill="#E2E2F0" height="30.2969" rx="2.5" ry="2.5" style="stroke:#181818;stroke-width:0.5;" width="61.0381" x="523.4219" y="42.2969"/><text fill="#000000" font-family="sans-serif" font-size="14" lengthAdjust="spacing" textLength="47.0381" x="530.4219" y="62.292">Report</text><rect fill="#E2E2F0" height="30.2969" rx="2.5" ry="2.5" style="stroke:#181818;stroke-width:0.5;" width="61.0381" x="523.4219" y="733.3828"/><text fill="#000000" font-family="sans-serif" font-size="14" lengthAdjust="spacing" textLength="47.0381" x="530.4219" y="753.3779">Report</text><line style="stroke:#000000;stroke-width:1.0;stroke-dasharray:2.0,2.0;" x1="0" x2="589.46" y1="83.5938" y2="83.5938"/><polygon fill="#181818" points="243.0493,101.7266,253.0493,105.7266,243.0493,109.7266,247.0493,105.7266" style="stroke:#181818;stroke-width:1.0;"/><line style="stroke:#181818;stroke-width:1.0;" x1="46.5864" x2="249.0493" y1="105.7266" y2="105.7266"/><text fill="#000000" font-family="sans-serif" font-size="13" lengthAdjust="spacing" textLength="130.7046" x="53.5864" y="100.6606">How many widgets?</text><polygon fill="#181818" points="57.5864,130.8594,47.5864,134.8594,57.5864,138.8594,53.5864,134.8594" style="stroke:#181818;stroke-width:1.0;"/><line style="stroke:#181818;stroke-width:1.0;" x1="51.5864" x2="254.0493" y1="134.8594" y2="134.8594"/><text fill="#000000" font-family="sans-serif" font-size="13" lengthAdjust="spacing" textLength="16.542" x="63.5864" y="129.7935">10</text><polygon fill="#181818" points="243.0493,159.9922,253.0493,163.9922,243.0493,167.9922,247.0493,163.9922" style="stroke:#181818;stroke-width:1.0;"/><line style="stroke:#181818;stroke-width:1.0;" x1="46.5864" x2="249.0493" y1="163.9922" y2="163.9922"/><text fill="#000000" font-family="sans-serif" font-size="13" lengthAdjust="spacing" textLength="184.4629" x="53.5864" y="158.9263">How many widgets per box?</text><polygon fill="#181818" points="57.5864,189.125,47.5864,193.125,57.5864,197.125,53.5864,193.125" style="stroke:#181818;stroke-width:1.0;"/><line style="stroke:#181818;stroke-width:1.0;" x1="51.5864" x2="254.0493" y1="193.125" y2="193.125"/><text fill="#000000" font-family="sans-serif" font-size="13" lengthAdjust="spacing" textLength="8.271" x="63.5864" y="188.0591">4</text><polygon fill="#181818" points="340.5254,218.2578,350.5254,222.2578,340.5254,226.2578,344.5254,222.2578" style="stroke:#181818;stroke-width:1.0;"/><line style="stroke:#181818;stroke-width:1.0;" x1="46.5864" x2="346.5254" y1="222.2578" y2="222.2578"/><text fill="#000000" font-family="sans-serif" font-size="13" lengthAdjust="spacing" textLength="180.9907" x="53.5864" y="217.1919">Start Production 10 widgets</text><polygon fill="#181818" points="454.9819,247.3906,464.9819,251.3906,454.9819,255.3906,458.9819,251.3906" style="stroke:#181818;stroke-width:1.0;"/><line style="stroke:#181818;stroke-width:1.0;" x1="46.5864" x2="460.9819" y1="251.3906" y2="251.3906"/><text fill="#000000" font-family="sans-serif" font-size="13" lengthAdjust="spacing" textLength="160.7734" x="53.5864" y="246.3247">Start Production 2 boxes</text><polygon fill="#181818" points="57.5864,276.5234,47.5864,280.5234,57.5864,284.5234,53.5864,280.5234" style="stroke:#181818;stroke-width:1.0;"/><line style="stroke:#181818;stroke-width:1.0;" x1="51.5864" x2="465.9819" y1="280.5234" y2="280.5234"/><text fill="#000000" font-family="sans-serif" font-size="13" lengthAdjust="spacing" textLength="92.46" x="63.5864" y="275.4575">2 boxes ready</text><polygon fill="#181818" points="57.5864,305.6563,47.5864,309.6563,57.5864,313.6563,53.5864,309.6563" style="stroke:#181818;stroke-width:1.0;"/><line style="stroke:#181818;stroke-width:1.0;" x1="51.5864" x2="351.5254" y1="309.6563" y2="309.6563"/><text fill="#000000" font-family="sans-serif" font-size="13" lengthAdjust="spacing" textLength="107.0024" x="63.5864" y="304.5903">Widget '0' ready</text><polygon fill="#181818" points="57.5864,334.7891,47.5864,338.7891,57.5864,342.7891,53.5864,338.7891" style="stroke:#181818;stroke-width:1.0;"/><line style="stroke:#181818;stroke-width:1.0;" x1="51.5864" x2="351.5254" y1="338.7891" y2="338.7891"/><text fill="#000000" font-family="sans-serif" font-size="13" lengthAdjust="spacing" textLength="107.0024" x="63.5864" y="333.7231">Widget '1' ready</text><polygon fill="#181818" points="57.5864,363.9219,47.5864,367.9219,57.5864,371.9219,53.5864,367.9219" style="stroke:#181818;stroke-width:1.0;"/><line style="stroke:#181818;stroke-width:1.0;" x1="51.5864" x2="351.5254" y1="367.9219" y2="367.9219"/><text fill="#000000" font-family="sans-serif" font-size="13" lengthAdjust="spacing" textLength="107.0024" x="63.5864" y="362.856">Widget '2' ready</text><polygon fill="#181818" points="57.5864,393.0547,47.5864,397.0547,57.5864,401.0547,53.5864,397.0547" style="stroke:#181818;stroke-width:1.0;"/><line style="stroke:#181818;stroke-width:1.0;" x1="51.5864" x2="351.5254" y1="397.0547" y2="397.0547"/><text fill="#000000" font-family="sans-serif" font-size="13" lengthAdjust="spacing" textLength="107.0024" x="63.5864" y="391.9888">Widget '3' ready</text><line style="stroke:#181818;stroke-width:1.0;" x1="46.5864" x2="88.5864" y1="426.1875" y2="426.1875"/><line style="stroke:#181818;stroke-width:1.0;" x1="88.5864" x2="88.5864" y1="426.1875" y2="439.1875"/><line style="stroke:#181818;stroke-width:1.0;" x1="47.5864" x2="88.5864" y1="439.1875" y2="439.1875"/><polygon fill="#181818" points="57.5864,435.1875,47.5864,439.1875,57.5864,443.1875,53.5864,439.1875" style="stroke:#181818;stroke-width:1.0;"/><text fill="#000000" font-family="sans-serif" font-size="13" lengthAdjust="spacing" textLength="174.2495" x="53.5864" y="421.1216">Pack 4 widgets into box '0'</text><polygon fill="#181818" points="57.5864,464.3203,47.5864,468.3203,57.5864,472.3203,53.5864,468.3203" style="stroke:#181818;stroke-width:1.0;"/><line style="stroke:#181818;stroke-width:1.0;" x1="51.5864" x2="351.5254" y1="468.3203" y2="468.3203"/><text fill="#000000" font-family="sans-serif" font-size="13" lengthAdjust="spacing" textLength="107.0024" x="63.5864" y="463.2544">Widget '4' ready</text><polygon fill="#181818" points="57.5864,493.4531,47.5864,497.4531,57.5864,501.4531,53.5864,497.4531" style="stroke:#181818;stroke-width:1.0;"/><line style="stroke:#181818;stroke-width:1.0;" x1="51.5864" x2="351.5254" y1="497.4531" y2="497.4531"/><text fill="#000000" font-family="sans-serif" font-size="13" lengthAdjust="spacing" textLength="107.0024" x="63.5864" y="492.3872">Widget '5' ready</text><polygon fill="#181818" points="57.5864,522.5859,47.5864,526.5859,57.5864,530.5859,53.5864,526.5859" style="stroke:#181818;stroke-width:1.0;"/><line style="stroke:#181818;stroke-width:1.0;" x1="51.5864" x2="351.5254" y1="526.5859" y2="526.5859"/><text fill="#000000" font-family="sans-serif" font-size="13" lengthAdjust="spacing" textLength="107.0024" x="63.5864" y="521.52">Widget '6' ready</text><polygon fill="#181818" points="57.5864,551.7188,47.5864,555.7188,57.5864,559.7188,53.5864,555.7188" style="stroke:#181818;stroke-width:1.0;"/><line style="stroke:#181818;stroke-width:1.0;" x1="51.5864" x2="351.5254" y1="555.7188" y2="555.7188"/><text fill="#000000" font-family="sans-serif" font-size="13" lengthAdjust="spacing" textLength="107.0024" x="63.5864" y="550.6528">Widget '7' ready</text><line style="stroke:#181818;stroke-width:1.0;" x1="46.5864" x2="88.5864" y1="584.8516" y2="584.8516"/><line style="stroke:#181818;stroke-width:1.0;" x1="88.5864" x2="88.5864" y1="584.8516" y2="597.8516"/><line style="stroke:#181818;stroke-width:1.0;" x1="47.5864" x2="88.5864" y1="597.8516" y2="597.8516"/><polygon fill="#181818" points="57.5864,593.8516,47.5864,597.8516,57.5864,601.8516,53.5864,597.8516" style="stroke:#181818;stroke-width:1.0;"/><text fill="#000000" font-family="sans-serif" font-size="13" lengthAdjust="spacing" textLength="174.2495" x="53.5864" y="579.7856">Pack 4 widgets into box '1'</text><polygon fill="#181818" points="57.5864,622.9844,47.5864,626.9844,57.5864,630.9844,53.5864,626.9844" style="stroke:#181818;stroke-width:1.0;"/><line style="stroke:#181818;stroke-width:1.0;" x1="51.5864" x2="351.5254" y1="626.9844" y2="626.9844"/><text fill="#000000" font-family="sans-serif" font-size="13" lengthAdjust="spacing" textLength="107.0024" x="63.5864" y="621.9185">Widget '8' ready</text><polygon fill="#181818" points="57.5864,652.1172,47.5864,656.1172,57.5864,660.1172,53.5864,656.1172" style="stroke:#181818;stroke-width:1.0;"/><line style="stroke:#181818;stroke-width:1.0;" x1="51.5864" x2="351.5254" y1="656.1172" y2="656.1172"/><text fill="#000000" font-family="sans-serif" font-size="13" lengthAdjust="spacing" textLength="107.0024" x="63.5864" y="651.0513">Widget '9' ready</text><polygon fill="#181818" points="541.9409,681.25,551.9409,685.25,541.9409,689.25,545.9409,685.25" style="stroke:#181818;stroke-width:1.0;"/><line style="stroke:#181818;stroke-width:1.0;" x1="46.5864" x2="547.9409" y1="685.25" y2="685.25"/><text fill="#000000" font-family="sans-serif" font-size="13" lengthAdjust="spacing" textLength="191.3247" x="53.5864" y="680.1841">2 boxes with 8 widgets ready</text><polygon fill="#181818" points="541.9409,710.3828,551.9409,714.3828,541.9409,718.3828,545.9409,714.3828" style="stroke:#181818;stroke-width:1.0;"/><line style="stroke:#181818;stroke-width:1.0;" x1="46.5864" x2="547.9409" y1="714.3828" y2="714.3828"/><text fill="#000000" font-family="sans-serif" font-size="13" lengthAdjust="spacing" textLength="181.6318" x="53.5864" y="709.3169">2 widgets are left unpacked</text><line style="stroke:#000000;stroke-width:1.0;stroke-dasharray:2.0,2.0;" x1="0" x2="589.46" y1="722.3828" y2="722.3828"/><!--SRC=[dLLDSvim4BtpAvQC4yUJndMkdhYPIMOwdPuoxQ57HaQBhLH8H1Ob_lTTG610qCRXOEjZz-tksxSG2XNBd2DaHlCyjaAhADOg4Rkbo5CP166Y3R9u3xCNlGMXOEPRqaqanS46G8_28cCxXAVyO7MA1kQbvp9ssqYn5EVmNMzZPdXGkOIpGl0TsaEKaS5Mly46BeMoVvYyhfm7rmldPV0r5mPvvEw7RiFxHHtkIIjhj9IKs-sNSaSrhE6RBY1bwWZE-A6nfLjdvxpMu4K-0nUe2A0Y_ea_A7Wixr-LoLSMMssEQ_XfcR7mtFR6px5981YoHm6mvCxt-EndqlYcJ2YXTbtgKyslFOnF7eJhdaXW12RSm0gkhYgrBPcKkeWoAapGyXWbWehdjK0sS65DZXSLs7yBgazkuAwEZOgBP8pKH_ts7aPhkEgt0ZcvJIkbumCqKVpOrpxDKgui9RronsGvF2lsGYBq7Uudn5W-FOaCCwilQJgxS7ENsedKGNRzVKDeqz1Q0bsJaVQNlLkrRgE3qoRvpEBV7a8xIJJhkcIKYcZPclUG-pHsDhtCQpaqouhbu2JIyvKuBUspolOXtbTufnu_p0_CjB5JmYo4tK-_EJhY254UyECXBh5wINk1RaUgNeo4_pZDdUIcs6K6GM9Y8LSPDGBvb59eMVxH5pBu2m00]--></g></svg>