<svg xmlns="http://www.w3.org/2000/svg" xmlns:xlink="http://www.w3.org/1999/xlink" contentStyleType="text/css" height="870px" preserveAspectRatio="none" style="width:596px;height:870px;background:#FFFFFF;" version="1.1" viewBox="0 0 596 870" width="596px" zoomAndPan="magnify"><defs/><g><text fill="#000000" font-family="sans-serif" font-size="14" font-weight="bold" lengthAdjust="spacing" textLength="280.7451" x="153.8574" y="27.9951">Customer 'Stark Industries' Jobcard</text><line style="stroke:#181818;stroke-width:0.5;stroke-dasharray:5.0,5.0;" x1="46" x2="46" y1="73.5938" y2="834.7813"/><line style="stroke:#181818;stroke-width:0.5;stroke-dasharray:5.0,5.0;" x1="254.5898" x2="254.5898" y1="73.5938" y2="834.7813"/><line style="stroke:#181818;stroke-width:0.5;stroke-dasharray:5.0,5.0;" x1="340.5088" x2="340.5088" y1="73.5938" y2="834.7813"/><line style="stroke:#181818;stroke-width:0.5;stroke-dasharray:5.0,5.0;" x1="455.3887" x2="455.3887" y1="73.5938" y2="834.7813"/><line style="stroke:#181818;stroke-width:0.5;stroke-dasharray:5.0,5.0;" x1="553.4219" x2="553.4219" y1="73.5938" y2="834.7813"/><rect fill="#E2E2F0" height="30.2969" rx="2.5" ry="2.5" style="stroke:#181818;stroke-width:0.5;" width="83.1729" x="5" y="42.2969"/><text fill="#000000" font-family="sans-serif" font-size="14" lengthAdjust="spacing" textLength="69.1729" x="12" y="62.292">Controller</text><rect fill="#E2E2F0" height="30.2969" rx="2.5" ry="2.5" style="stroke:#181818;stroke-width:0.5;" width="83.1729" x="5" y="833.7813"/><text fill="#000000" font-family="sans-serif" font-size="14" lengthAdjust="spacing" textLength="69.1729" x="12" y="853.7764">Controller</text><rect fill="#E2E2F0" height="30.2969" rx="2.5" ry="2.5" style="stroke:#181818;stroke-width:0.5;" width="58.9189" x="225.5898" y="42.2969"/><text fill="#000000" font-family="sans-serif" font-size="14" lengthAdjust="spacing" textLength="44.9189" x="232.5898" y="62.292">Config</text><rect fill="#E2E2F0" height="30.2969" rx="2.5" ry="2.5" style="stroke:#181818;stroke-width:0.5;" width="58.9189" x="225.5898" y="833.7813"/><text fill="#000000" font-family="sans-serif" font-size="14" lengthAdjust="spacing" textLength="44.9189" x="232.5898" y="853.7764">Config</text><rect fill="#E2E2F0" height="30.2969" rx="2.5" ry="2.5" style="stroke:#181818;stroke-width:0.5;" width="92.8799" x="294.5088" y="42.2969"/><text fill="#000000" font-family="sans-serif" font-size="14" lengthAdjust="spacing" textLength="78.8799" x="301.5088" y="62.292">BoxFactory</text><rect fill="#E2E2F0" height="30.2969" rx="2.5" ry="2.5" style="stroke:#181818;stroke-width:0.5;" width="92.8799" x="294.5088" y="833.7813"/><text fill="#000000" font-family="sans-serif" font-size="14" lengthAdjust="spacing" textLength="78.8799" x="301.5088" y="853.7764">BoxFactory</text><rect fill="#E2E2F0" height="30.2969" rx="2.5" ry="2.5" style="stroke:#181818;stroke-width:0.5;" width="116.0332" x="397.3887" y="42.2969"/><text fill="#000000" font-family="sans-serif" font-size="14" lengthAdjust="spacing" textLength="102.0332" x="404.3887" y="62.292">WidgetFactory</text><rect fill="#E2E2F0" height="30.2969" rx="2.5" ry="2.5" style="stroke:#181818;stroke-width:0.5;" width="116.0332" x="397.3887" y="833.7813"/><text fill="#000000" font-family="sans-serif" font-size="14" lengthAdjust="spacing" textLength="102.0332" x="404.3887" y="853.7764">WidgetFactory</text><rect fill="#E2E2F0" height="30.2969" rx="2.5" ry="2.5" style="stroke:#181818;stroke-width:0.5;" width="61.0381" x="523.4219" y="42.2969"/><text fill="#000000" font-family="sans-serif" font-size="14" lengthAdjust="spacing" textLength="47.0381" x="530.4219" y="62.292">Report</text><rect fill="#E2E2F0" height="30.2969" rx="2.5" ry="2.5" style="stroke:#181818;stroke-width:0.5;" width="61.0381" x="523.4219" y="833.7813"/><text fill="#000000" font-family="sans-serif" font-size="14" lengthAdjust="spacing" textLength="47.0381" x="530.4219" y="853.7764">Report</text><line style="stroke:#000000;stroke-width:1.0;stroke-dasharray:2.0,2.0;" x1="0" x2="589.46" y1="84.5938" y2="84.5938"/><polygon fill="#181818" points="243.0493,102.7266,253.0493,106.7266,243.0493,110.7266,247.0493,106.7266" style="stroke:#181818;stroke-width:1.0;"/><line style="stroke:#181818;stroke-width:1.0;" x1="46.5864" x2="249.0493" y1="106.7266" y2="106.7266"/><text fill="#000000" font-family="sans-serif" font-size="13" lengthAdjust="spacing" textLength="184.4629" x="53.5864" y="101.6606">How many widgets per box?</text><polygon fill="#181818" points="57.5864,131.8594,47.5864,135.8594,57.5864,139.8594,53.5864,135.8594" style="stroke:#181818;stroke-width:1.0;"/><line style="stroke:#181818;stroke-width:1.0;" x1="51.5864" x2="254.0493" y1="135.8594" y2="135.8594"/><text fill="#000000" font-family="sans-serif" font-size="13" lengthAdjust="spacing" textLength="8.271" x="63.5864" y="130.7935">6</text><polygon fill="#181818" points="328.9487,160.9922,338.9487,164.9922,328.9487,168.9922,332.9487,164.9922" style="stroke:#181818;stroke-width:1.0;"/><line style="stroke:#181818;stroke-width:1.0;" x1="46.5864" x2="334.9487" y1="164.9922" y2="164.9922"/><text fill="#000000" font-family="sans-serif" font-size="13" lengthAdjust="spacing" textLength="160.7734" x="53.5864" y="159.9263">Start Production 3 boxes</text><polygon fill="#181818" points="57.5864,190.125,47.5864,194.125,57.5864,198.125,53.5864,194.125" style="stroke:#181818;stroke-width:1.0;"/><line style="stroke:#181818;stroke-width:1.0;" x1="51.5864" x2="339.9487" y1="194.125" y2="194.125"/><text fill="#000000" font-family="sans-serif" font-size="13" lengthAdjust="spacing" textLength="92.46" x="63.5864" y="189.0591">3 boxes ready</text><polygon fill="#181818" points="443.4053,219.2578,453.4053,223.2578,443.4053,227.2578,447.4053,223.2578" style="stroke:#181818;stroke-width:1.0;"/><line style="stroke:#181818;stroke-width:1.0;" x1="46.5864" x2="449.4053" y1="223.2578" y2="223.2578"/><text fill="#000000" font-family="sans-serif" font-size="13" lengthAdjust="spacing" textLength="180.9907" x="53.5864" y="218.1919">Start Production 15 widgets</text><polygon fill="#181818" points="57.5864,248.3906,47.5864,252.3906,57.5864,256.3906,53.5864,252.3906" style="stroke:#181818;stroke-width:1.0;"/><line style="stroke:#181818;stroke-width:1.0;" x1="51.5864" x2="454.4053" y1="252.3906" y2="252.3906"/><text fill="#000000" font-family="sans-serif" font-size="13" lengthAdjust="spacing" textLength="107.0024" x="63.5864" y="247.3247">Widget '0' ready</text><polygon fill="#181818" points="57.5864,277.5234,47.5864,281.5234,57.5864,285.5234,53.5864,281.5234" style="stroke:#181818;stroke-width:1.0;"/><line style="stroke:#181818;stroke-width:1.0;" x1="51.5864" x2="454.4053" y1="281.5234" y2="281.5234"/><text fill="#000000" font-family="sans-serif" font-size="13" lengthAdjust="spacing" textLength="107.0024" x="63.5864" y="276.4575">Widget '1' ready</text><polygon fill="#181818" points="57.5864,306.6563,47.5864,310.6563,57.5864,314.6563,53.5864,310.6563" style="stroke:#181818;stroke-width:1.0;"/><line style="stroke:#181818;stroke-width:1.0;" x1="51.5864" x2="454.4053" y1="310.6563" y2="310.6563"/><text fill="#000000" font-family="sans-serif" font-size="13" lengthAdjust="spacing" textLength="107.0024" x="63.5864" y="305.5903">Widget '2' ready</text><polygon fill="#181818" points="57.5864,335.7891,47.5864,339.7891,57.5864,343.7891,53.5864,339.7891" style="stroke:#181818;stroke-width:1.0;"/><line style="stroke:#181818;stroke-width:1.0;" x1="51.5864" x2="454.4053" y1="339.7891" y2="339.7891"/><text fill="#000000" font-family="sans-serif" font-size="13" lengthAdjust="spacing" textLength="107.0024" x="63.5864" y="334.7231">Widget '3' ready</text><polygon fill="#181818" points="57.5864,364.9219,47.5864,368.9219,57.5864,372.9219,53.5864,368.9219" style="stroke:#181818;stroke-width:1.0;"/><line style="stroke:#181818;stroke-width:1.0;" x1="51.5864" x2="454.4053" y1="368.9219" y2="368.9219"/><text fill="#000000" font-family="sans-serif" font-size="13" lengthAdjust="spacing" textLength="107.0024" x="63.5864" y="363.856">Widget '4' ready</text><polygon fill="#181818" points="57.5864,394.0547,47.5864,398.0547,57.5864,402.0547,53.5864,398.0547" style="stroke:#181818;stroke-width:1.0;"/><line style="stroke:#181818;stroke-width:1.0;" x1="51.5864" x2="454.4053" y1="398.0547" y2="398.0547"/><text fill="#000000" font-family="sans-serif" font-size="13" lengthAdjust="spacing" textLength="107.0024" x="63.5864" y="392.9888">Widget '5' ready</text><line style="stroke:#181818;stroke-width:1.0;" x1="46.5864" x2="88.5864" y1="427.1875" y2="427.1875"/><line style="stroke:#181818;stroke-width:1.0;" x1="88.5864" x2="88.5864" y1="427.1875" y2="440.1875"/><line style="stroke:#181818;stroke-width:1.0;" x1="47.5864" x2="88.5864" y1="440.1875" y2="440.1875"/><polygon fill="#181818" points="57.5864,436.1875,47.5864,440.1875,57.5864,444.1875,53.5864,440.1875" style="stroke:#181818;stroke-width:1.0;"/><text fill="#000000" font-family="sans-serif" font-size="13" lengthAdjust="spacing" textLength="174.2495" x="53.5864" y="422.1216">Pack 6 widgets into box '0'</text><polygon fill="#181818" points="57.5864,465.3203,47.5864,469.3203,57.5864,473.3203,53.5864,469.3203" style="stroke:#181818;stroke-width:1.0;"/><line style="stroke:#181818;stroke-width:1.0;" x1="51.5864" x2="454.4053" y1="469.3203" y2="469.3203"/><text fill="#000000" font-family="sans-serif" font-size="13" lengthAdjust="spacing" textLength="107.0024" x="63.5864" y="464.2544">Widget '6' ready</text><polygon fill="#181818" points="57.5864,494.4531,47.5864,498.4531,57.5864,502.4531,53.5864,498.4531" style="stroke:#181818;stroke-width:1.0;"/><line style="stroke:#181818;stroke-width:1.0;" x1="51.5864" x2="454.4053" y1="498.4531" y2="498.4531"/><text fill="#000000" font-family="sans-serif" font-size="13" lengthAdjust="spacing" textLength="107.0024" x="63.5864" y="493.3872">Widget '7' ready</text><polygon fill="#181818" points="57.5864,523.5859,47.5864,527.5859,57.5864,531.5859,53.5864,527.5859" style="stroke:#181818;stroke-width:1.0;"/><line style="stroke:#181818;stroke-width:1.0;" x1="51.5864" x2="454.4053" y1="527.5859" y2="527.5859"/><text fill="#000000" font-family="sans-serif" font-size="13" lengthAdjust="spacing" textLength="107.0024" x="63.5864" y="522.52">Widget '8' ready</text><polygon fill="#181818" points="57.5864,552.7188,47.5864,556.7188,57.5864,560.7188,53.5864,556.7188" style="stroke:#181818;stroke-width:1.0;"/><line style="stroke:#181818;stroke-width:1.0;" x1="51.5864" x2="454.4053" y1="556.7188" y2="556.7188"/><text fill="#000000" font-family="sans-serif" font-size="13" lengthAdjust="spacing" textLength="107.0024" x="63.5864" y="551.6528">Widget '9' ready</text><polygon fill="#181818" points="57.5864,581.8516,47.5864,585.8516,57.5864,589.8516,53.5864,585.8516" style="stroke:#181818;stroke-width:1.0;"/><line style="stroke:#181818;stroke-width:1.0;" x1="51.5864" x2="454.4053" y1="585.8516" y2="585.8516"/><text fill="#000000" font-family="sans-serif" font-size="13" lengthAdjust="spacing" textLength="115.2734" x="63.5864" y="580.7856">Widget '10' ready</text><polygon fill="#181818" points="57.5864,610.9844,47.5864,614.9844,57.5864,618.9844,53.5864,614.9844" style="stroke:#181818;stroke-width:1.0;"/><line style="stroke:#181818;stroke-width:1.0;" x1="51.5864" x2="454.4053" y1="614.9844" y2="614.9844"/><text fill="#000000" font-family="sans-serif" font-size="13" lengthAdjust="spacing" textLength="115.2734" x="63.5864" y="609.9185">Widget '11' ready</text><line style="stroke:#181818;stroke-width:1.0;" x1="46.5864" x2="88.5864" y1="644.1172" y2="644.1172"/><line style="stroke:#181818;stroke-width:1.0;" x1="88.5864" x2="88.5864" y1="644.1172" y2="657.1172"/><line style="stroke:#181818;stroke-width:1.0;" x1="47.5864" x2="88.5864" y1="657.1172" y2="657.1172"/><polygon fill="#181818" points="57.5864,653.1172,47.5864,657.1172,57.5864,661.1172,53.5864,657.1172" style="stroke:#181818;stroke-width:1.0;"/><text fill="#000000" font-family="sans-serif" font-size="13" lengthAdjust="spacing" textLength="174.2495" x="53.5864" y="639.0513">Pack 6 widgets into box '1'</text><polygon fill="#181818" points="57.5864,682.25,47.5864,686.25,57.5864,690.25,53.5864,686.25" style="stroke:#181818;stroke-width:1.0;"/><line style="stroke:#181818;stroke-width:1.0;" x1="51.5864" x2="454.4053" y1="686.25" y2="686.25"/><text fill="#000000" font-family="sans-serif" font-size="13" lengthAdjust="spacing" textLength="115.2734" x="63.5864" y="681.1841">Widget '12' ready</text><polygon fill="#181818" points="57.5864,711.3828,47.5864,715.3828,57.5864,719.3828,53.5864,715.3828" style="stroke:#181818;stroke-width:1.0;"/><line style="stroke:#181818;stroke-width:1.0;" x1="51.5864" x2="454.4053" y1="715.3828" y2="715.3828"/><text fill="#000000" font-family="sans-serif" font-size="13" lengthAdjust="spacing" textLength="115.2734" x="63.5864" y="710.3169">Widget '13' ready</text><polygon fill="#181818" points="57.5864,740.5156,47.5864,744.5156,57.5864,748.5156,53.5864,744.5156" style="stroke:#181818;stroke-width:1.0;"/><line style="stroke:#181818;stroke-width:1.0;" x1="51.5864" x2="454.4053" y1="744.5156" y2="744.5156"/><text fill="#000000" font-family="sans-serif" font-size="13" lengthAdjust="spacing" textLength="115.2734" x="63.5864" y="739.4497">Widget '14' ready</text><line style="stroke:#181818;stroke-width:1.0;" x1="46.5864" x2="88.5864" y1="773.6484" y2="773.6484"/><line style="stroke:#181818;stroke-width:1.0;" x1="88.5864" x2="88.5864" y1="773.6484" y2="786.6484"/><line style="stroke:#181818;stroke-width:1.0;" x1="47.5864" x2="88.5864" y1="786.6484" y2="786.6484"/><polygon fill="#181818" points="57.5864,782.6484,47.5864,786.6484,57.5864,790.6484,53.5864,786.6484" style="stroke:#181818;stroke-width:1.0;"/><text fill="#000000" font-family="sans-serif" font-size="13" lengthAdjust="spacing" textLength="174.2495" x="53.5864" y="768.5825">Pack 3 widgets into box '2'</text><polygon fill="#181818" points="541.9409,811.7813,551.9409,815.7813,541.9409,819.7813,545.9409,815.7813" style="stroke:#181818;stroke-width:1.0;"/><line style="stroke:#181818;stroke-width:1.0;" x1="46.5864" x2="547.9409" y1="815.7813" y2="815.7813"/><text fill="#000000" font-family="sans-serif" font-size="13" lengthAdjust="spacing" textLength="199.5957" x="53.5864" y="810.7153">3 boxes with 15 widgets ready</text><line style="stroke:#000000;stroke-width:1.0;stroke-dasharray:2.0,2.0;" x1="0" x2="589.46" y1="823.7813" y2="823.7813"/><!--SRC=[dLLTRvim57tdLrogj6cqDSjUewMJLccQzbHj3tj43huaNetD73EQVx-BCGGmQ6tp4F37kUVSu-Ca5YgL9KSeZEPbQeLMIQfL9WvhKUOoYk9C6sJf4HQ_zHw4WaMuarOIAKus0leeh0fsG7WeJrRdQ61P8zUf7oQAvRY4xtgVCiCZ1uaNbU07jAUae0rx_Gmxk1RA_cNore57ookFClYd50PvujV7iF7wgg5xqCeQBILfkxklHzJ35hxf2dAcpj0M8p8WiiyjXdRv_HwzXR7kQ2oCvh2M5Khz489RRCw44khGxohN_3QeyJueuOqH6KoKYNUmWPiRTv1h9gMkae8PA-Zrd6I2EkADzpkuigR4ArVilmqrC-_WOyEDYejiokSl-lahIwqsvotyj4GCZrsGWdBksnMvm0Bpfp10OUNdAVvVpeQNI6WDyyzXHYdpfRBamCPF4-ruhZeAYJ04V0e9Edy7qiPjDejqY_hbbhxFomcDr0t7xUcqwMZorDyoaQKw29iEDdbnEf6FB7qAAdGtYUwahe-7ckZSMWug3sti3GRAcsorhyxbw9BuryTw_fwygksmnCiQx_KJqlp0GXixb_9AsEDyOdlXY56UyEqKr-X-J0EYkuckLnFqRxUv9sxENMOG96OMIbNGGI2VImgzrW_w9ul-0G00]--></g></svg>